<?xml version="1.0" encoding="utf-8"?>
<!-- Generator: Adobe Illustrator 21.0.0, SVG Export Plug-In . SVG Version: 6.00 Build 0)  -->
<svg version="1.1" id="Calque_1" xmlns="http://www.w3.org/2000/svg" xmlns:xlink="http://www.w3.org/1999/xlink" x="0px" y="0px"
	 viewBox="0 0 32 27" style="enable-background:new 0 0 32 27;" xml:space="preserve">
<style type="text/css">
	.st0{fill:none;}
	.st1{fill:#A7E9D5;}
</style>
<title>Icon</title>
<desc>Created with Sketch.</desc>
<g>
	<rect x="5" y="2" class="st0" width="22" height="4"/>
	<circle class="st0" cx="4" cy="23" r="2"/>
	<circle class="st0" cx="16" cy="23" r="2"/>
	<circle class="st0" cx="28" cy="23" r="2"/>
	<path d="M3,13v6.1c-1.7,0.4-3,2-3,3.9c0,2.2,1.8,4,4,4s4-1.8,4-4c0-1.9-1.3-3.4-3-3.9V15h10v-2H3z M6,23c0,1.1-0.9,2-2,2
		s-2-0.9-2-2s0.9-2,2-2S6,21.9,6,23z"/>
	<path d="M29,19.1V13H17v2h10v4.1c-1.7,0.4-3,2-3,3.9c0,2.2,1.8,4,4,4s4-1.8,4-4C32,21.1,30.7,19.6,29,19.1z M28,25
		c-1.1,0-2-0.9-2-2s0.9-2,2-2s2,0.9,2,2S29.1,25,28,25z"/>
	<path class="st1" d="M17,8h12V0H3v8h12v5v2v3.1v1c-1.7,0.4-3,2-3,3.9c0,2.2,1.8,4,4,4s4-1.8,4-4c0-1.9-1.3-3.4-3-3.9v-1.6V15v-2V8z
		 M18,23c0,1.1-0.9,2-2,2s-2-0.9-2-2s0.9-2,2-2S18,21.9,18,23z M5,6V2h22v4H5z"/>
</g>
</svg>
