<?xml version="1.0" encoding="utf-8"?>
<!-- Generator: Adobe Illustrator 21.0.0, SVG Export Plug-In . SVG Version: 6.00 Build 0)  -->
<svg version="1.1" id="Calque_1" xmlns="http://www.w3.org/2000/svg" xmlns:xlink="http://www.w3.org/1999/xlink" x="0px" y="0px"
	 viewBox="0 0 34 25" style="enable-background:new 0 0 34 25;" xml:space="preserve">
<style type="text/css">
	.st0{fill:#A7E9D5;}
</style>
<title>Icon</title>
<desc>Created with Sketch.</desc>
<g id="Page-1">
	<g id="Icons" transform="translate(-19.000000, -166.000000)">
		<path id="Icon" d="M51,188c0,0.6-0.4,1-1,1H22c-0.6,0-1-0.4-1-1v-19c0-0.6,0.4-1,1-1h28c0.6,0,1,0.4,1,1V188z M50,166H22
			c-1.7,0-3,1.3-3,3v19c0,1.7,1.3,3,3,3h28c1.7,0,3-1.3,3-3v-19C53,167.3,51.7,166,50,166z"/>
	</g>
</g>
<path d="M22.7,3.4c-2.2,0-4,1.8-4,4s1.8,4,4,4s4-1.8,4-4S24.9,3.4,22.7,3.4z M22.7,9.4c-1.1,0-2-0.9-2-2c0-1.1,0.9-2,2-2s2,0.9,2,2
	C24.7,8.5,23.8,9.4,22.7,9.4z"/>
<polygon class="st0" points="18.2,17.7 12,10.5 4.2,19.3 5.8,20.7 12,13.5 17.8,20.3 22.8,17.3 26.3,20.7 27.7,19.3 23.2,14.7 "/>
</svg>
