<?xml version="1.0" encoding="utf-8"?>
<!-- Generator: Adobe Illustrator 21.0.0, SVG Export Plug-In . SVG Version: 6.00 Build 0)  -->
<svg version="1.1" id="Calque_1" xmlns="http://www.w3.org/2000/svg" xmlns:xlink="http://www.w3.org/1999/xlink" x="0px" y="0px"
	 viewBox="0 0 255.3 95.3" style="enable-background:new 0 0 255.3 95.3;" xml:space="preserve">
<style type="text/css">
	.st0{fill:#222137;}
	.st1{fill:#10111C;}
	.st2{fill:#1A172B;}
	.st3{fill:#3C2E58;}
	.st4{fill:#1E232C;}
	.st5{fill:#C7E3D3;}
	.st6{fill:#BFE0D3;}
</style>
<path class="st0" d="M170.5,82.1l-0.3,1.3c-0.5,2-1,3.4-1.5,4.2c-0.8,1-2.1,1.5-3.9,1.5c-0.3,0.2-0.4,0.7-0.5,1.6
	c0,0.9,0,1.4,0.3,1.5c4.8-0.6,11.2-0.9,19-0.9c0.3,0,0.9,0,1.6,0c0.7,0,1.3,0,1.8,0c0.1,0,0.1-0.1,0.2-0.2c-0.8-0.9-1.5-1.9-2.2-2.9
	c-0.9,0-1.6-0.1-2.1-0.2c-0.4-0.1-0.8-0.4-1-0.9c-0.2-0.5-0.4-0.9-0.4-1.3c0-0.9,0.1-1.8,0.3-2.7l0-0.1c-0.5-1.1-1-2.2-1.5-3.3
	C177.1,80.6,173.8,81.4,170.5,82.1z"/>
<path class="st1" d="M178.5,72.8c-1.1-5.9,0-10.9,2.5-15.1c-1.8-0.7-3.4-1.5-5-2.3l-5.6,26.7c3.3-0.7,6.6-1.5,9.9-2.4
	C179.6,77.5,179,75.2,178.5,72.8z"/>
<path class="st1" d="M122.9,48.4c-0.7,1.5-1.3,2.9-2,4.1c-1.3,2.5-2.6,4.5-3.9,6.1c-1.3,1.6-2.2,2.4-2.9,2.4c-0.5,0-0.9-0.2-1.1-0.6
	c-0.3-0.4-0.4-0.9-0.4-1.4c0-0.3,0.4-2.7,1.2-7.4l0.2-1.1c-4,0.9-7.9,1.6-11.6,2.3c-1,5.4-1.5,9-1.5,10.5c0,3.1,0.4,5.2,1.3,6.5
	c0.8,1.2,2.4,1.9,4.8,1.9c2.1,0,5-1.8,8.7-5.5c3.7-3.7,6.4-7.4,8.3-11.3c-0.4,1.5-0.8,3.2-1.2,5.1c-0.5,2.5-0.7,4.1-0.7,4.8
	c0,2.3,0.6,4,1.7,5.2c1.2,1.1,2.6,1.7,4.4,1.7c1.6,0,3.6-0.8,5.9-2.3c2.3-1.5,4.3-3.2,6-5c1.7-1.8,2.9-3.2,3.5-4.4
	c0-0.4-0.2-0.9-0.5-1.6c-0.3-0.7-0.6-1-0.9-1c-0.3,0.6-1.3,1.7-3,3.4c-1.7,1.7-3,2.5-3.9,2.5c-0.5,0-0.8-0.2-1-0.6
	c-0.2-0.4-0.3-0.9-0.3-1.4c0-0.8,0.1-1.9,0.4-3.2l2.5-13.2c-2.8,0.5-5.9,1.2-9.2,2.2C126,47.6,124.4,48,122.9,48.4z"/>
<path class="st1" d="M75.8,63c-1.9,3.1-4,4.7-6.2,4.7c-2.2,0-3.3-2.9-3.3-8.8c0-1.3,0.1-2.6,0.2-4c-4.2-0.3-8.2-0.7-12-1.3
	c-0.2,1.2-0.3,2.4-0.3,3.7c0,4.5,1.3,8,3.8,10.5c2.5,2.5,5.9,3.8,10,3.8c3.8,0,7.6-1.5,11.6-4.4c4-2.9,7.3-6.7,9.9-11.3
	c0.3-0.5,0.5-1,0.8-1.5c-3.8,0.4-7.5,0.6-11.1,0.7C78.3,58,77.2,60.6,75.8,63z"/>
<path class="st1" d="M30,67.8c-3.5-0.3-5.3-0.9-5.4-1.7c-0.1-0.3-0.1-0.5-0.1-0.8c0-0.3,0-0.7,0-1.1c0-0.4,0.1-0.8,0.1-1.1
	c0-0.3,0.1-0.7,0.2-1.4c0.1-0.6,0.2-1.1,0.2-1.4c0.1-0.3,0.2-0.9,0.3-1.6c0.1-0.8,0.2-1.3,0.3-1.7l2.1-10.8c-4.2-1.7-8-3.6-11.5-5.7
	L13,57c-0.6,3.3-1.2,5.8-1.7,7.4c-0.2,0.7-0.5,1.3-0.7,1.7c-0.1,0.1-0.1,0.2-0.2,0.3c-0.7,0.7-2.7,1.2-5.9,1.5
	c-0.3,0.3-0.5,0.9-0.7,1.8c-0.2,0.9-0.2,1.5,0,1.8c2.3-0.2,4.6-0.4,6.9-0.5c0.3,0,0.7,0,1,0c1.7-0.1,3.3-0.1,5-0.1
	c4.6,0,8.8,0.2,12.8,0.7c0.3-0.3,0.5-0.9,0.6-1.8C30.2,68.7,30.2,68.1,30,67.8z"/>
<path class="st2" d="M187.6,89.9c0.1-0.9,0.1-1.4-0.1-1.5c-0.9,0-1.8,0-2.4-0.1c0.7,1,1.4,2,2.2,2.9C187.4,91,187.5,90.6,187.6,89.9
	z"/>
<path class="st2" d="M240.5,60c-0.4,0.3-0.8,0.7-1.2,1c-0.4,0.4-0.9,0.7-1.4,1c-0.5,0.3-1,0.6-1.4,0.8c-0.5,0.2-1,0.4-1.5,0.6
	c-0.5,0.1-1,0.2-1.4,0.2c-1.2,0-2.1-0.3-2.9-0.8c-0.6-0.4-1.1-0.8-1.4-1.4c-4.7,0.6-9,1-12.9,1.3c0.5,2.1,1.3,3.8,2.4,5.2
	c2,2.5,4.7,3.7,8.1,3.7c1.4,0,3.1-0.5,5.2-1.5c2-1,3.9-2.1,5.7-3.4c1.7-1.3,3.3-2.6,4.6-3.8c1.3-1.2,2.2-2.1,2.5-2.7
	c0-0.4-0.1-0.8-0.3-1.4c-1.1,0.2-2.1,0.4-3.1,0.6C241,59.6,240.8,59.8,240.5,60z"/>
<path class="st2" d="M196.5,61.8c-0.6,0.9-1.2,1.8-1.9,2.6c-1.6,1.9-3.3,2.8-4.9,2.8c-1.3,0-2.2-0.8-2.6-2.5c-0.3-1.2-0.3-2.8-0.1-5
	c-2.1-0.6-4.1-1.3-5.9-2.1c-2.6,4.2-3.6,9.2-2.5,15.1c0.4,2.4,1.1,4.7,1.9,6.9c0.4,1.1,0.9,2.3,1.5,3.3l0.8-3.9l1.7-8.1
	c0.7,0.3,1.6,0.5,2.6,0.5c2.9,0,6-0.9,9.3-2.8c2.9-1.6,5.5-3.6,8-6.1C201.5,62.5,198.9,62.2,196.5,61.8z"/>
<path class="st3" d="M20.8,20c-0.2-0.2-0.3-0.5-0.4-0.8c0,0.1,0,0.2,0,0.3C20.5,19.7,20.7,19.8,20.8,20z"/>
<path class="st3" d="M81.2,37.1C81.2,37.2,81.2,37.2,81.2,37.1L81.2,37.1C81.2,37.2,81.2,37.2,81.2,37.1L81.2,37.1z"/>
<path class="st3" d="M70.7,34c-0.1,0-0.1-0.1-0.2-0.1L64.6,36c1.8,0.1,3.6,0.2,5.4,0.2c0.6,0,1.2,0,1.8-0.1c0.3-0.5,0.6-0.9,1-1.4
	C72.1,34.6,71.4,34.3,70.7,34z"/>
<polygon class="st3" points="81.2,37.2 81.3,37.2 81.2,37.1 "/>
<path class="st3" d="M67.8,37.8l-4.8-1.3l0,0c-0.1,0-0.1,0-0.2,0c-0.3,0.4-0.7,0.8-1,1.2l1.2,0.4l2.9,0.9c-1.7,0.1-3.4,0.1-5.1,0
	c-1,1.4-2,2.9-2.9,4.5c-1.9,3.4-3,6.8-3.5,10.1c3.8,0.6,7.8,1,12,1.3c0.1-1.5,0.4-3.1,0.7-4.8c0.6-3.1,1.3-6.1,2.3-8.9
	c0.3-0.9,0.7-1.8,1.1-2.6L67.8,37.8z"/>
<path class="st3" d="M16.2,40.5l0-0.2l-0.3,0C16.1,40.4,16.2,40.5,16.2,40.5z"/>
<path class="st3" d="M243.3,57.2l-0.3,0.3c-0.2,0.2-0.4,0.4-0.6,0.6c-0.2,0.2-0.5,0.5-0.8,0.8c-0.1,0.1-0.2,0.2-0.3,0.3
	c1-0.2,2.1-0.4,3.1-0.6c0-0.1-0.1-0.2-0.1-0.3C244,57.6,243.7,57.2,243.3,57.2z"/>
<path class="st4" d="M44.1,35.2l1.7,0.9c0.7,0.1,1.3,0.2,2,0.4c1.7,0.5,3.3,0.9,5,1.3c0.2-0.2,0.4-0.4,0.7-0.6
	c-2.2-0.5-4.4-1-6.5-1.4C46,35.6,45,35.4,44.1,35.2z"/>
<path class="st4" d="M31.3,27.9l-1.8-0.6c0.1,0,0.2,0.1,0.3,0.1l1.5,0.6L31.3,27.9z"/>
<path class="st4" d="M29.8,27.5L29,27.2l1.3,0.7C30.1,27.7,29.9,27.6,29.8,27.5z"/>
<path class="st4" d="M48.7,34.9l5.1,2c0.4-0.4,0.9-0.8,1.3-1.3c-1.2-0.1-2.4-0.2-3.6-0.3C50.6,35.2,49.6,35,48.7,34.9z"/>
<path class="st4" d="M63,38.1l-1.2-0.4c-0.1,0.2-0.2,0.3-0.4,0.5c-0.2,0.3-0.4,0.6-0.6,0.8c1.7,0.1,3.4,0.1,5.1,0L63,38.1z"/>
<path class="st4" d="M81,35.1c0.1,0.4,0.2,0.9,0.2,1.4c1.3-0.3,2.7-0.7,3.9-1.3c2-1,4.1-1.6,6.2-2.2c-0.2-0.3-0.3-0.5-0.5-0.8
	C87.6,33.4,84.3,34.3,81,35.1z"/>
<path class="st4" d="M31.4,24.6c-1.1-1.6-2.2-3.1-2.5-5.2c-0.3-1.8-1.2-3.4-2.4-4.9c-0.4-0.4-0.5-1.1-0.7-1.6
	c-0.6-1.9-1.3-3.7-2-5.5c-3.2,0-5.7-0.1-7.5-0.3c-0.2,0.3-0.4,0.8-0.6,1.5c0,0.1,0,0.2-0.1,0.3c-0.2,0.9-0.2,1.5-0.1,1.8
	c0.2,0,0.4,0,0.5,0.1c3.2,0.3,4.8,0.8,5,1.5c0.1,0.3,0.1,0.5,0.1,0.8c0,0.3,0,0.7,0,1.1c0,0.4-0.1,0.8-0.1,1.1
	c0,0.3-0.1,0.7-0.2,1.4c-0.1,0.6-0.2,1.1-0.2,1.4c-0.1,0.2-0.1,0.6-0.2,1.2c0.1,0.3,0.3,0.5,0.4,0.8c0.4,0.5,0.8,0.9,1.2,1.5
	c0.3,0.3,0.7,0.6,1.1,0.8c0.6,0.5,1.2,0.9,1.8,1.4c1.4,1.1,2.9,2.1,4.1,3.5c0.2,0,0.3,0.1,0.4,0.1l2,0.5l0.5-2.6
	C31.7,25,31.5,24.8,31.4,24.6z"/>
<path class="st4" d="M70.1,36.2c-1.8,0-3.6-0.1-5.4-0.2l-1.6,0.5l4.8,1.3l2.7,0.7c0.1-0.3,0.3-0.6,0.4-0.9c0.3-0.6,0.6-1.1,0.9-1.6
	C71.3,36.1,70.7,36.2,70.1,36.2z"/>
<path class="st5" d="M55.1,35.6c0,0,0.1,0,0.1,0L55.1,35.6C55.1,35.5,55.1,35.5,55.1,35.6z"/>
<path class="st5" d="M32,24.5l0,0.2c0.1,0,0.1,0,0.2,0C32.1,24.6,32,24.5,32,24.5z"/>
<path class="st5" d="M32,24.6c-0.2,0-0.4-0.1-0.6-0.1c0.2,0.2,0.3,0.5,0.5,0.7L32,24.6z"/>
<path class="st3" d="M22,21.5c-0.3-0.5-0.7-1-1.2-1.5C21.1,20.5,21.5,21,22,21.5z"/>
<path class="st3" d="M81.2,37.1C81.2,37.1,81.2,37.1,81.2,37.1C81.2,37.1,81.2,37.1,81.2,37.1L81.2,37.1z"/>
<path class="st3" d="M115.1,29.3c-1.2-1.2-2.7-1.8-4.7-1.8c-2.3,0-5.1,1.4-8.4,4.3c-1.9,1.6-3.4,3.1-4.6,4.5c-0.4,0.5-0.7,0.9-1,1.3
	c-0.4,0.5-0.7,1-0.9,1.5c0,0.4,0.2,0.9,0.5,1.6c0.3,0.7,0.6,1,0.9,1c0.3-0.6,1.3-1.7,3-3.4c0.2-0.2,0.4-0.4,0.6-0.6
	c0.9-0.9,1.7-1.4,2.4-1.7c0.3-0.1,0.6-0.2,0.9-0.2c0.2,0,0.4,0.1,0.6,0.1c0.2,0.1,0.4,0.3,0.5,0.5c0.3,0.4,0.4,0.9,0.4,1.4
	c0,0,0,0.1,0,0.1c0,0.8-0.2,1.9-0.5,3.1c-0.1,0.6-0.7,4-1.9,10.2c-0.1,0.6-0.2,1.1-0.3,1.6c3.8-0.6,7.7-1.4,11.6-2.3l2-10.4
	c0.1-0.7,0.3-1.3,0.4-1.8c0.2-1.2,0.4-2.2,0.5-3c0-0.4,0.1-0.7,0.1-1C116.9,32.2,116.3,30.5,115.1,29.3z"/>
<path class="st3" d="M134.2,27.7c-2.3,0-4.1,0.2-5.4,0.6l-1.3,6.5l0,0.1c-0.2,1.2-0.6,2.5-0.9,3.7c-0.5,1.7-1.1,3.5-1.8,5.3
	c-0.6,1.5-1.2,3-1.8,4.4c1.5-0.4,3-0.8,4.6-1.3c3.4-1,6.4-1.7,9.2-2.2l1.1-5.9l0.9-4.8l1.1-6C138.3,27.9,136.4,27.7,134.2,27.7z"/>
<path class="st3" d="M93,37.6c-0.1-0.3-0.1-0.7-0.2-1c-0.1-0.5-0.3-1-0.4-1.4c-0.2-0.5-0.4-1-0.7-1.5c-0.1-0.2-0.2-0.4-0.3-0.6
	c-2.1,0.6-4.3,1.2-6.2,2.2c-1.3,0.6-2.6,1-3.9,1.3c0,0.1,0,0.3,0,0.5c0,0.1,0,0.1,0,0.2c0,0,0,0,0,0l0.1,0l-0.1,0
	c0,0.8,0.1,1.4,0.1,1.8c0,0.5,0,1.1,0,1.8c0,3.5-0.5,7.3-1.4,11.4c-0.2,1-0.5,2-0.8,3c3.6-0.1,7.3-0.3,11.1-0.7
	c2.1-4.1,3.1-8.2,3.1-12.2C93.4,40.5,93.3,39,93,37.6z"/>
<path class="st4" d="M29,27.2l0.4,0.1C29.3,27.2,29.1,27.2,29,27.2z"/>
<g>
	<path class="st3" d="M42.2,35.3c-0.1,0.1-0.3,0.3-0.4,0.4c-0.2,0.2-0.4,0.3-0.5,0.5c-2.2,2.1-4.4,3.2-6.5,3.2
		c-1.2,0-2.1-0.1-2.9-0.4c-0.1,0-0.2,0.1-0.3,0.2c-0.1,0.1-0.2,0.3-0.2,0.5c0,0,0,0,0,0c0,0.3,0.1,0.7,0.3,1.2
		c0.2,0.5,0.4,0.9,0.6,1c1.4,1,2.9,1.4,4.5,1.4c2.4,0,4.7-0.4,7.2-1.1c2.4-0.7,4.7-1.8,6.9-3.2c0.2-0.1,0.4-0.3,0.6-0.4
		c0.4-0.3,0.8-0.5,1.2-0.8c-1.7-0.4-3.3-0.8-5-1.3c-0.6-0.2-1.3-0.3-2-0.4l-1.7-0.9c-0.5-0.1-1-0.2-1.5-0.4
		C42.5,35,42.4,35.1,42.2,35.3z"/>
	<path class="st3" d="M53.4,37.2c0.1-0.1,0.3-0.2,0.4-0.4l-5.1-2L44,33c-0.1,0.2-0.2,0.3-0.3,0.5c-0.3,0.4-0.5,0.7-0.8,1l1.2,0.7
		c0.9,0.2,1.8,0.4,2.7,0.6C49.1,36.2,51.2,36.7,53.4,37.2z"/>
</g>
<g>
	<path class="st3" d="M31.4,27.8l-2-0.5L29,27.2l0.8,0.3c-0.1-0.1-0.2-0.1-0.3-0.1l1.8,0.6L31.4,27.8z"/>
	<path class="st3" d="M29,27.2c-1.2-1.3-2.7-2.4-4.1-3.5c-0.6-0.5-1.2-0.9-1.8-1.4c-0.4-0.2-0.8-0.5-1.1-0.8
		c-0.5-0.4-0.8-0.9-1.2-1.5c-0.2-0.2-0.3-0.3-0.5-0.5c0,0.1,0,0.1,0,0.2c-0.1,0.8-0.2,1.3-0.3,1.7l-0.3,1.7l-1.4,7.2l-2,10.1l0,0.2
		c3.5,2,7.4,3.9,11.5,5.7l1.2-6.4l1.9-9.6l0.2-0.9l0.1-0.5l0.1-0.4l0.1-0.3l-1.5-0.6c0.2,0.1,0.3,0.2,0.4,0.4L29,27.2z"/>
</g>
<path class="st3" d="M44.1,35.2l-1.2-0.7c-0.1,0.1-0.1,0.2-0.2,0.3C43.2,34.9,43.7,35.1,44.1,35.2z"/>
<path class="st5" d="M90.5,31.9c-0.2-0.2-0.4-0.4-0.6-0.6c0,0-0.1-0.1-0.1-0.1c-0.1-0.1-0.2-0.2-0.3-0.3c-0.1-0.1-0.2-0.2-0.3-0.3
	c-0.2-0.1-0.3-0.2-0.5-0.4c0,0-0.1-0.1-0.1-0.1c-0.2-0.1-0.4-0.3-0.5-0.4c-0.7-0.5-1.5-0.8-2.3-1.2c-0.3-0.1-0.7-0.2-1-0.3
	c-1.5-0.4-3.1-0.6-4.9-0.7c-0.2,0-0.5,0-0.7,0c-0.2,0-0.4,0-0.5,0c-2.5,0.1-5,0.8-7.5,2.2c-0.5,0.3-1,0.6-1.6,0.9c0,0-0.1,0-0.1,0.1
	c0,0,0,0,0,0c-0.1,0.1-0.2,0.1-0.3,0.2c-0.5,0.3-1,0.7-1.5,1.1c-1.5,1.2-2.9,2.4-4.2,3.8c-0.2,0.2-0.4,0.4-0.5,0.6c0,0,0,0,0,0
	c0.1,0,0.1,0,0.2,0l0,0l1.6-0.5l5.9-2.1c0.1,0,0.1,0.1,0.2,0.1c0.7,0.3,1.4,0.6,2.1,0.7c0.1-0.1,0.1-0.2,0.2-0.3
	c0-0.1,0.1-0.1,0.1-0.2c0.7-0.9,1.4-1.5,2.2-2c0.7-0.5,1.5-0.7,2.2-0.8c0.1,0,0.3,0,0.4,0c0.5,0,1,0.1,1.4,0.4
	c0.4,0.3,0.7,0.7,0.9,1.3c0,0.1,0.1,0.2,0.1,0.4c0,0,0,0,0,0.1c0,0.1,0,0.1,0.1,0.2c0.1,0.3,0.2,0.5,0.2,0.7c0,0.1,0.1,0.2,0.1,0.3
	c0,0.1,0,0.2,0.1,0.2c3.3-0.8,6.6-1.7,9.9-2.8C90.7,32.1,90.6,32,90.5,31.9z"/>
<path class="st5" d="M60.3,21.9c-0.1-2.7-0.9-5.2-2.5-7.5c0-0.1-0.1-0.1-0.1-0.2c-0.2-0.2-0.4-0.5-0.5-0.7c-0.2-0.3-0.5-0.6-0.7-0.9
	c-0.1-0.1-0.2-0.2-0.3-0.3c-1.8-1.9-4-3.3-6.5-4.2C49.3,8.1,49,8,48.6,7.9C46.9,7.4,45,7.2,43,7.2c-1.3,0-2.9,0-4.8,0.1
	c-0.2,0-0.4,0-0.7,0c-0.7,0-1.4,0-2.1,0.1c-1.8,0.1-3.3,0.1-4.4,0.1c-0.2,0-0.4,0-0.6,0c-0.5,0-1,0-1.3,0c-0.2,0-0.4,0-0.6,0
	c-0.3,0-0.6,0-0.9,0c-1,0-2,0-2.9,0c-0.3,0-0.5,0-0.8,0c0.7,1.8,1.4,3.6,2,5.5c0.2,0.6,0.4,1.2,0.7,1.6c1.2,1.5,2.1,3.1,2.4,4.9
	c0.3,2,1.4,3.6,2.5,5.2c0.2,0,0.4,0.1,0.6,0.1l0-0.2l1.2-6.4c0.1-0.3,0.2-0.8,0.3-1.5c0.1-0.7,0.2-1.2,0.3-1.5c0-0.1,0-0.2,0.1-0.2
	c0-0.2,0.1-0.5,0.2-0.8c0,0,0,0,0-0.1c0.1-0.4,0.2-0.8,0.3-1.1c0.1-0.1,0.1-0.3,0.2-0.4c0.1-0.1,0.1-0.3,0.2-0.4c0,0,0,0,0,0
	c0.5-0.7,2-1.1,4.5-1.1c0.1,0,0.1,0,0.2,0c0.2,0,0.5,0,0.7,0.1c2.5,0.2,4.4,1.8,5.5,4.8c0.1,0.3,0.2,0.7,0.3,1
	c0.1,0.4,0.2,0.8,0.3,1.3c0.3,1.4,0.5,2.8,0.4,4.3c0,0.1,0,0.2,0,0.4c0,0.4,0,0.7,0,1.1c0,0.2,0,0.4-0.1,0.6
	c-0.1,0.7-0.2,1.4-0.3,2.2c0,0.2-0.1,0.4-0.1,0.6c-0.3,1.5-0.8,2.9-1.5,4.2c-0.1,0.2-0.2,0.4-0.3,0.6c-0.2,0.3-0.3,0.5-0.5,0.8
	c0,0,0,0.1-0.1,0.1l4.7,1.8c0.9,0.2,1.9,0.3,2.8,0.4c1.2,0.1,2.4,0.2,3.6,0.3c0,0,0,0,0,0c0.2-0.2,0.3-0.3,0.5-0.5
	c0.1-0.1,0.2-0.3,0.4-0.5c0.3-0.3,0.5-0.6,0.8-1c1.1-1.6,2-3.3,2.6-5.1c0.1-0.2,0.1-0.3,0.2-0.5c0.1-0.2,0.1-0.4,0.2-0.6
	c0.1-0.2,0.1-0.4,0.2-0.7c0-0.1,0-0.2,0.1-0.3c0-0.1,0.1-0.3,0.1-0.4c0.2-1.1,0.3-2.1,0.3-3.1C60.3,22.6,60.3,22.2,60.3,21.9z"/>
<path class="st5" d="M184.2,48L184.2,48c-0.1-0.1-0.1-0.1-0.2-0.1C184.1,48,184.1,48,184.2,48z"/>
<path class="st6" d="M250.3,36.4C250.3,36.4,250.3,36.4,250.3,36.4C250.3,36.4,250.3,36.4,250.3,36.4
	C250.3,36.4,250.3,36.4,250.3,36.4z"/>
<path class="st6" d="M250.7,35.7c0-0.5-0.1-1-0.2-1.5c0-0.2-0.1-0.4-0.2-0.6c0-0.1-0.1-0.2-0.1-0.4c-0.1-0.4-0.3-0.7-0.5-1
	c-0.5-0.9-1-1.6-1.7-2.2c-0.2-0.1-0.4-0.3-0.6-0.4c-0.1-0.1-0.2-0.1-0.3-0.2c-0.3-0.2-0.6-0.3-0.9-0.5c-0.8-0.4-1.7-0.7-2.5-1
	c-0.3-0.1-0.7-0.2-1-0.2c-0.5-0.1-1-0.2-1.6-0.2c-0.4,0-0.8,0-1.2,0c-0.9,0-1.8,0.1-2.7,0.3c-1.5,0.3-3.1,0.9-4.7,1.8
	c-0.1,0-0.2,0.1-0.3,0.2c-0.3,0.1-0.5,0.3-0.8,0.4c-0.2,0.1-0.4,0.3-0.6,0.4c-2.7,1.7-5.1,3.9-7.3,6.5c-0.4,0.5-0.8,1-1.2,1.6
	c-1.8,2.4-3.3,5.1-4.5,8.1c-0.2,0.4-0.3,0.8-0.5,1.2l10.9-0.7c0.2-0.9,0.4-2,0.7-3.1c0.5-1.9,1.1-3.9,1.8-5.9
	c0.1-0.2,0.2-0.5,0.3-0.7c0.1-0.1,0.1-0.3,0.2-0.4c0.2-0.5,0.4-1,0.7-1.5c0.2-0.3,0.3-0.6,0.5-0.9c0.3-0.5,0.7-1.1,1-1.5
	c1-1.4,2.1-2.1,3.2-2.1c1.2,0,1.9,0.6,2.3,1.8c0.1,0.2,0.1,0.4,0.1,0.6c0.1,0.4,0.1,0.9,0.1,1.4c0,0.6-0.1,1.3-0.2,1.9
	c0,0,0,0.1,0,0.1c0,0.2,0,0.3-0.1,0.5c-0.1,0.5-0.2,0.9-0.4,1.4c-0.2,0.4-0.3,0.9-0.5,1.3c-0.8,1.8-1.8,3.3-2.9,4.6
	c-0.8,0.9-1.6,1.6-2.5,2.3l8.7-0.5c1.8-1.1,3.4-2.4,4.7-3.9c1.6-1.8,2.9-3.6,3.9-5.4c0.1-0.3,0.3-0.5,0.4-0.8c0,0,0,0,0,0
	c0,0,0,0,0,0C250.5,36.2,250.6,35.9,250.7,35.7z"/>
<path class="st6" d="M214,33.3c-0.1-0.3-0.3-0.7-0.4-1c-0.1-0.2-0.2-0.4-0.3-0.6c-0.2-0.4-0.4-0.7-0.7-1c0-0.1-0.1-0.1-0.1-0.1
	c-1.3-1.6-3-2.6-5.1-2.9c-0.6-0.1-1.2-0.2-1.8-0.2c-0.4,0-0.7,0-1.1,0.1c-1.6,0.2-3.3,0.7-5.1,1.6c-0.3,0.1-0.5,0.3-0.8,0.4
	c-0.2,0.1-0.3,0.2-0.5,0.3c-0.6,0.3-1.1,0.7-1.6,1c-0.2,0.1-0.4,0.2-0.6,0.4c-0.1,0.1-0.2,0.1-0.3,0.2c-0.5,0.3-0.9,0.6-1.3,1
	c-0.2,0.1-0.3,0.2-0.4,0.4c-0.1,0.1-0.3,0.2-0.4,0.3c-0.1,0.1-0.3,0.2-0.5,0.4c-0.1,0.1-0.2,0.2-0.3,0.3c-0.2,0.1-0.3,0.3-0.4,0.4
	c-0.2,0.2-0.5,0.5-0.7,0.7c0.1-0.3,0.1-0.7,0.2-1c0-0.2,0.1-0.4,0.1-0.6c0-0.1,0-0.2,0.1-0.3c0-0.2,0.1-0.4,0.1-0.5
	c0-0.2,0.1-0.4,0.1-0.5c0-0.1,0-0.2,0.1-0.3c0-0.1,0-0.1,0-0.2c0.1-0.6,0.2-1.1,0.3-1.6c0-0.2,0.1-0.5,0.1-0.7
	c0.1-0.3,0.1-0.6,0.2-0.9c-0.4-0.2-1.3-0.4-2.6-0.6c-0.1,0-0.1,0-0.2,0c-0.5-0.1-1-0.1-1.4-0.1c-0.6,0-1.1-0.1-1.4-0.1
	c-0.9,0-1.7,0-2.4,0.1c0,0,0,0,0,0c-0.4,0-0.7,0-1,0.1c-0.3,0-0.6,0-0.8,0.1c-0.2,0-0.3,0-0.5,0.1c0,0,0,0,0,0
	c-0.3,0-0.5,0.1-0.8,0.1c-0.1,0-0.2,0.1-0.4,0.1l-0.4,2.2l-0.1,0.7c0,0,0,0,0,0l0,0.1l-0.2,1l0,0.2l-0.1,0.5l-0.9,4.8l-0.1,0.6
	l-0.1,0.7l-0.3,1.7l0,0.2l-0.1,0.6l-0.4,1.9l-0.1,0.1l-0.5,0.5l-0.5,0.5l-0.3,0.3l-0.1,0.1l-0.1,0.1c0.6,1.1,1,1.7,1,1.7
	s1.2,0.3,3.2,0.8c0.4,0.1,0.4,0.1,0.4,0.1c0.7,0.2,1.6,0.4,2.5,0.6c0,0,0.1,0,0.1,0c1.4,0.3,3.1,0.7,4.9,1l1.9-9.2
	c0.5-0.5,1.1-1,1.6-1.4c0.4-0.3,0.8-0.6,1.2-0.9c0.2-0.1,0.4-0.2,0.6-0.4c0.7-0.4,1.4-0.8,2.1-1c0,0,0.1,0,0.1,0l0-0.1
	c0.3-0.1,0.6-0.2,0.9-0.2c0.5-0.1,1-0.2,1.5-0.2c0,0,0.1,0,0.1,0c0.8,0,1.5,0.3,2.1,0.8c0.3,0.2,0.5,0.5,0.7,0.9
	c0.4,0.8,0.7,1.8,0.8,3.2c0,0.2,0,0.4,0,0.6c0,0,0,0,0,0c0,0.3,0,0.5,0,0.8c0,0.4,0,0.8,0,1.2c-0.1,1.7-0.4,3.5-0.9,5.7l11.9-0.7
	c1-2.8,1.5-5.5,1.5-8.2c0-0.2,0-0.5,0-0.7C215,37,214.7,35,214,33.3z"/>
<path class="st3" d="M184.1,48C184.1,48,184.1,48,184.1,48c-1-0.2-1.8-0.4-2.6-0.6c0,0,0.8,0.2-0.4-0.1c-2-0.5-3.2-0.8-3.2-0.8
	s-0.4-0.6-1-1.7l-0.7,0.7l-0.4,0.4l-2,2c-1,0.8-1.5,1.7-1.5,2.7c0,1.2,0.2,2,0.7,2.6l4.4-4.7l-1.4,6.9c1.6,0.8,3.2,1.5,5,2.3
	c1.8,0.8,3.8,1.5,5.9,2.1c0.1-1,0.3-2,0.5-3.2l0.8-4.1l0.6-2.7l0-0.1L189,49C187.2,48.6,185.5,48.3,184.1,48z"/>
<path class="st3" d="M201.6,48.9c0,0.2-0.1,0.3-0.1,0.5c-0.1,0.5-0.3,1-0.4,1.4c-0.3,0.9-0.5,1.8-0.8,2.7c-0.5,1.4-1,2.8-1.6,4.1
	c-0.6,1.5-1.4,2.9-2.2,4.2c2.4,0.4,5,0.6,7.8,0.8c0.4-0.4,0.8-0.7,1.1-1.1c2.3-2.5,4.3-5.4,6-8.7c0.2-0.4,0.4-0.7,0.5-1.1
	c0.1-0.2,0.2-0.4,0.3-0.6c0.4-1,0.8-2,1.2-2.9L201.6,48.9z"/>
<path class="st3" d="M250.7,36.4c0-0.1,0-0.1,0-0.2c0-0.2,0-0.3,0-0.5c-0.1,0.2-0.2,0.5-0.4,0.7c0,0,0,0,0,0
	c-0.1,0.3-0.3,0.5-0.4,0.8c-1,1.8-2.3,3.6-3.9,5.4c-1.3,1.5-2.9,2.8-4.7,3.9l-8.7,0.5c-0.4,0.3-0.8,0.6-1.2,0.9
	c-1.3,0.8-2.4,1.2-3.3,1.2c0.1-0.6,0.1-1.2,0.3-1.8l-10.9,0.7c-0.5,1.3-0.9,2.6-1.1,3.9c0,0.1-0.1,0.3-0.1,0.4
	c-0.4,1.8-0.5,3.5-0.5,5.2c0,1.9,0.2,3.6,0.6,5.2c4-0.2,8.3-0.6,12.9-1.3c-0.1-0.2-0.3-0.4-0.4-0.7c-0.4-0.9-0.7-1.7-0.9-2.6
	c-0.2-0.9-0.3-1.8-0.3-2.8c0-1.2,0.1-2,0.2-2.4c1.6,0,3.7-0.4,6.1-1.2c2.5-0.8,5-1.9,7.5-3.2c1.2-0.6,2.2-1.3,3.2-2.1
	c0.2-0.2,0.4-0.3,0.6-0.5c1-0.8,1.8-1.7,2.7-2.6c0.2-0.2,0.3-0.4,0.5-0.6c0.1-0.1,0.1-0.2,0.2-0.3c0.1-0.1,0.1-0.2,0.2-0.3
	c1.1-1.6,1.6-3.2,1.8-4.9c0-0.1,0-0.1,0-0.2C250.7,36.7,250.7,36.6,250.7,36.4C250.7,36.4,250.7,36.4,250.7,36.4z"/>
<path class="st1" d="M147.8,59.1c-0.6,2.3-0.9,4.3-0.9,5.8c0,2.3,0.6,4,1.7,5.2c1.2,1.1,2.6,1.7,4.3,1.7c1.6,0,3.6-0.8,5.9-2.3
	c2.3-1.5,4.3-3.2,6-5c1.7-1.8,2.9-3.2,3.5-4.4c0-0.4-0.2-0.9-0.5-1.6c-0.3-0.7-0.6-1-0.9-1c-0.3,0.6-1.3,1.7-3,3.4
	c-1.7,1.7-3,2.5-3.9,2.5c-0.5,0-0.8-0.2-1-0.6c-0.2-0.4-0.3-0.9-0.3-1.4c0-0.6,0.1-1.6,0.4-3.2l2.1-10.6c-3.3-1.4-6.7-2.6-10.6-3.1
	L147.8,59.1z"/>
<path class="st3" d="M161.1,33.2c-1.9-2.1-3.5-4.4-4.8-6.9c0,0-0.1-0.1-0.1-0.1c-0.2-0.3-0.3-0.6-0.4-0.9c-0.3-0.1-0.6-0.1-0.9-0.2
	c-0.1,0-0.3-0.1-0.4-0.1l0,0.2l-0.2,1.1l-0.2,0.9l-0.2,1l-1.1,5.5l-1.2,6l-1,4.9c4,0.5,7.4,1.7,10.6,3.1l1.2-6.4l0.8-3.9l0.2-0.8
	l0.1-0.7C162.7,35,161.8,34.1,161.1,33.2z"/>
<path class="st5" d="M164.5,23.6c0.1,0.1,0.1,0.2,0.2,0.3C164.6,23.8,164.5,23.7,164.5,23.6z"/>
<path class="st5" d="M165.6,25.5c-0.3-0.5-0.6-1.1-1-1.6c-0.1-0.1-0.1-0.2-0.2-0.3c-1-1.7-2.1-3.4-3-5c-1.7-2.7-3.1-5.1-4.3-6.8
	c-0.5-0.8-0.9-1.6-1.3-2.4c-0.4-0.9-0.7-1.8-1-2.8c-0.1,0-0.1,0-0.2,0c-0.2,0-0.4,0.1-0.6,0.1c-0.4,0.1-0.7,0.1-1.1,0.1
	c-0.5,0.1-1,0.1-1.5,0.2c-0.1,0-0.1,0-0.2,0c-0.1,0.1-0.2,0.4-0.3,0.7c0,0.2-0.1,0.4-0.1,0.7c-0.1,0.7-0.1,1.2,0,1.4
	c0.1,0,0.3,0,0.4,0c0.2,0,0.4,0,0.6,0c0.6,0,1.1,0,1.6,0.1c0.4,0,0.8,0.1,1.1,0.2c0.2,0.1,0.5,0.1,0.7,0.2c0.3,0.1,0.6,0.2,0.8,0.4
	c0.4,0.3,0.6,0.6,0.6,1c0,0.2,0,0.5-0.1,0.8c0,0.2,0,0.3-0.1,0.5c-0.1,0.4-0.1,0.8-0.2,1.3c0,0.2-0.1,0.5-0.1,0.7
	c0,0.2-0.1,0.4-0.1,0.5c-0.1,0.5-0.2,0.9-0.2,1.2l-0.2,0.8l-0.5,2.5l-0.2,0.9l-0.3,1.4l-0.1,0.7l-0.2,1.1l-0.1,0.6
	c0.1,0,0.3,0.1,0.4,0.1c0.3,0.1,0.6,0.1,0.9,0.2c0.1,0.3,0.3,0.6,0.4,0.9c0,0,0.1,0.1,0.1,0.1c1.3,2.5,2.9,4.8,4.8,6.9
	c0.8,0.9,1.6,1.8,2.5,2.6l0.1-0.7l0.2-0.9l0.1-0.7l0.1-0.5l0.1-0.4l0.1-0.7l0.3-1.8l0-0.1l0-0.3l0.1-0.4l0.2-1.1l0.1-0.7l0.3-1.4
	c0,0,0,0,0,0c0,0,0,0,0,0L165.6,25.5z"/>
<path class="st6" d="M165.6,25.5l0-0.1c-0.3-0.5-0.7-1-1-1.5C164.9,24.4,165.3,24.9,165.6,25.5z"/>
<path class="st6" d="M168.7,3.7c-0.1,0-0.1,0-0.2,0.1c-0.1,0-0.2,0.1-0.3,0.1c-0.4,0.1-1,0.3-1.6,0.4c-0.1,0-0.3,0.1-0.4,0.1
	c-0.2,0.1-0.4,0.1-0.7,0.2c-0.1,0-0.3,0.1-0.5,0.1c-0.4,0.1-0.7,0.2-1.1,0.3c-0.1,0-0.3,0.1-0.4,0.1c-0.2,0-0.4,0.1-0.6,0.1
	c-0.2,0-0.3,0.1-0.5,0.1c-0.5,0.1-1,0.2-1.5,0.3c-0.8,0.2-1.6,0.3-2.3,0.5c-0.2,0-0.4,0.1-0.5,0.1c-0.8,0.1-1.5,0.3-2.2,0.4
	c-0.2,0-0.4,0.1-0.6,0.1c-0.1,0-0.3,0-0.4,0.1c0.2,1,0.6,1.9,1,2.8c0.4,0.8,0.8,1.7,1.3,2.4c1.1,1.7,2.6,4.1,4.3,6.8
	c1,1.6,2,3.2,3,5c0.1,0.1,0.1,0.2,0.2,0.3c0.3,0.5,0.6,1,1,1.5l1.3-6.6l0.2-0.8l0.2-1l0.2-0.9l0.5-2.6l0.1-0.6c0-0.1,0-0.2,0.1-0.3
	c0.1-0.5,0.2-0.9,0.3-1.3c0.1-0.3,0.1-0.6,0.2-0.9c0.2-1,0.4-1.9,0.5-2.6c0.1-0.8,0.2-1.4,0.3-1.8c0-0.1,0-0.2,0-0.3
	C169.3,4.5,169.1,3.9,168.7,3.7z"/>
</svg>
