<?xml version="1.0" encoding="utf-8"?>
<!-- Generator: Adobe Illustrator 21.0.0, SVG Export Plug-In . SVG Version: 6.00 Build 0)  -->
<svg version="1.1" id="Calque_1" xmlns="http://www.w3.org/2000/svg" xmlns:xlink="http://www.w3.org/1999/xlink" x="0px" y="0px"
	 viewBox="0 0 684 153.2" style="enable-background:new 0 0 684 153.2;" xml:space="preserve">
<style type="text/css">
	.st0{fill:#FFFFFF;}
</style>
<g>
	<polygon class="st0" points="154.1,13.7 135.6,102.2 115.6,13.7 89,13.7 69,101.8 50.5,13.7 15.3,13.7 50.4,149.3 81.7,149.3 
		102,61.5 122.8,149.3 153.2,149.3 189.1,13.7 	"/>
	<path class="st0" d="M267.6,60.2c-9.5-10.1-22.9-16.1-38.5-16.1c-31,0-53.3,26.2-53.3,54.6c0,30.2,24.7,53.9,53.9,53.9
		c10.4,0,20.5-3.1,29-9.2c8.6-5.9,15.8-14.7,20.7-26h-31.2c-3.7,5.3-8.8,9.5-18.5,9.5c-11.9,0-22.2-7.1-23.5-18h75.7
		C284.2,90.3,280.4,74,267.6,60.2z M206.5,85.9c0.7-4.8,7-16.1,22.7-16.1s22,11.4,22.7,16.1H206.5z"/>
	<path class="st0" d="M409.9,44.1c-10.6,0-18.9,3.8-24.9,9.3c-2.9,2.6-5.3,5.7-7.3,8.8c-1.8-3.5-3.8-6.2-6-8.4
		c-7.5-7.9-16.3-9.7-23.3-9.7c-10.6,0-17.8,3.5-22.2,7.1c-4.4,3.5-6.2,7.1-6.2,7.1V47.6h-28.4v101.7H322V95.2c0-3.1,0-8.6,2.2-13.6
		c2.2-4.9,6.4-9,15-9c7.7,0,11.4,3.8,13.4,8.6c1.8,4.6,1.8,9.9,1.8,12.6v55.4h30.4V93.7c0-2.9,0-8.1,2.2-12.6
		c2-4.6,6.2-8.4,14.7-8.4c7.9,0,11.7,3.5,13.6,8.2c2,4.6,2,10.1,2,14.3v54.1h30.4V93.8c0-22.5-1.5-29.3-11-39.4
		C428.4,45.7,417,44.1,409.9,44.1z"/>
	<path class="st0" d="M514,44.1c-18.1,0-24.6,9.3-28,14.3V47.6h-28.4v101.7H488V93.9c0-10.4,2.4-21.3,17.4-21.3
		c13.6,0,15.9,9.9,15.9,21.1v55.5h30.4V85.6C551.7,71.9,548.2,44.1,514,44.1z"/>
	<path class="st0" d="M471.9,32.4c8.4,0,15.4-7,15.4-15.7c0-8.6-6.9-15.7-15.2-15.7H472c-9,0-15.6,7.4-15.6,15.7
		C456.4,25.2,463.3,32.4,471.9,32.4z"/>
	<path class="st0" d="M639.9,13.7v31.5v11c-3.3-3.3-11.9-12.1-29.9-12.1c-25.8,0-50.4,19.6-50.4,54.1c0,30.6,20.2,54.4,51,54.4
		c20.5,0,27.9-10.1,30.8-14.3v11h29V13.7H639.9z M634.4,116.5c-4.8,4.8-11.5,7.7-18.9,7.7c-14.3,0-25.5-10.4-25.5-26V98
		c0-11.7,8.2-25.5,25.8-25.5c7.1,0,13.6,2.6,18.1,7.1c4.6,4.4,7.5,10.6,7.5,18C641.9,105.1,639.2,111.7,634.4,116.5z"/>
</g>
</svg>
