<?xml version="1.0" encoding="utf-8"?>
<!-- Generator: Adobe Illustrator 21.0.0, SVG Export Plug-In . SVG Version: 6.00 Build 0)  -->
<svg version="1.1" xmlns="http://www.w3.org/2000/svg" xmlns:xlink="http://www.w3.org/1999/xlink" x="0px" y="0px"
	 viewBox="0 0 269 446" style="enable-background:new 0 0 269 446;" xml:space="preserve">
<style type="text/css">
	.st0{fill:#3C2E58;}
	.st1{fill:#C4F3D9;}
	.st2{fill:#BCEED9;}
	.st3{fill:#B4EECD;}
</style>
<g id="_x35_76818589_x5F_BARBOUILLAGE_xA0_Image_1_">
</g>
<g id="FOND">
</g>
<g id="Calque_5">
</g>
<g id="VIOLET">
</g>
<g id="ROND_BLEU">
	
		<image style="overflow:visible;" width="538" height="892" xlink:href="../../../../../Desktop/Capture d’écran 2017-01-31 à 18.49.05.png"  transform="matrix(0.5 0 0 0.5 2022.8722 -148.8659)">
	</image>
	<path class="st0" d="M244.3,0.9C244.3,0.9,244.3,0.9,244.3,0.9c0.7-0.2,1.3-0.5,2-0.9h-1C244.9,0.3,244.6,0.6,244.3,0.9z"/>
	<path class="st0" d="M244.3,0.9c0.3-0.3,0.6-0.6,1-0.9h-1.2C244.1,0.3,244.2,0.6,244.3,0.9z"/>
	<path class="st0" d="M246.3,0c-0.6,0.3-1.3,0.6-2,0.9c0,0,0,0,0,0c-0.1-0.3-0.2-0.6-0.2-0.9h-4.3h-4.2h-36.3h-5.4
		c-9.1,5.3-18.7,9.7-28.7,13.2c-14.3,5-26,14.1-36.8,24.7C112,54,90.1,56.7,68.6,59.9c-12.1,1.8-24.6,0.6-36.3,5.3
		c-2.3,0.9-5.7,1.1-5.4,4.5c0.2,3.1,3.5,3.7,5.9,4c6.6,0.8,13.3,1.3,20,1.7c28.8,1.8,56.9-4,85.1-8.6c20.2-3.3,40.5-4.4,60.6,0.7
		c24.4,6.1,45.7,18.7,67,31.4c1.2,0.7,2.4,1.4,3.6,2.2v-0.8v-1.3v-1.7v-7.8V0H246.3z"/>
	<path class="st1" d="M62,81.2c-0.2,0-0.3,0-0.5,0c-0.1,0.1-0.2,0.2-0.3,0.3C61.5,81.4,61.7,81.3,62,81.2z"/>
	<path class="st2" d="M23,92.8c4.2,0.7,8.4,1.3,12.6,2C31.5,94.1,27.3,93.4,23,92.8z"/>
	<path class="st1" d="M269,108.8v-3c-16.9-9.8-34-19.4-52.1-27c-23.4-9.9-47.4-14.2-73.1-8.7c-25,5.3-50.1,11.8-76.2,9.1
		c-2.1-0.2-4.3,0.5-6,2.1c0.2,0,0.3,0,0.5,0c-0.3,0.1-0.5,0.2-0.8,0.3c0.1-0.1,0.2-0.2,0.3-0.3c-0.7,0-1.4-0.1-2.1-0.1
		c-1.8-2.9-4.9-2.6-7.8-2.6c-7.7,0-15.4,0-23,0c0,0,0,0,0,0c0,0,0,0,0,0c-7.7-0.5-15.5-1.1-23.2-1.6c-1.2-1.2-3.1-2-5.4-2.6v1.3v0.8
		v0.1v1.1v2.1v2v2.2v0.9v2.1v0.5v2.3v0.9c7.7,0.6,15.4,1.3,23,2.3c4.2,0.6,8.4,1.2,12.6,2c6.5,1.2,13,2.7,19.5,4.6
		c1.9,0.6,4.1,0.5,6.1,0.8c0.1,0.1,0.2,0.2,0.2,0.2c-0.1-0.1-0.2-0.2-0.2-0.2c17.4-0.3,33.6,5.5,49.8,10.5
		c17.7,5.4,35.8,9.6,52.7,17.9c14.1,6.9,25.7,17,38,26.2c4.5,3.4,8.2,7.8,12.8,11.2c25.7,18.5,40.8,45.1,54.5,72.5v-40.9v-4.4v-6.4
		v-3.2v-14.6V165v-9.6v-4.7v-23.8v-3.5v-6.6v-2.7v-2.3V108.8c0.1,0.1,0.2,0.1,0.3,0.2C269.2,108.9,269.1,108.8,269,108.8z"/>
	<path class="st3" d="M265.4,98.8c-21.3-12.7-42.6-25.3-67-31.4c-20.2-5-40.5-3.9-60.6-0.7c-28.2,4.6-56.3,10.4-85.1,8.6
		c-6.7-0.4-13.3-1-20-1.7c-2.4-0.3-5.7-0.8-5.9-4c-0.3-3.4,3.1-3.6,5.4-4.5c11.7-4.6,24.2-3.5,36.3-5.3c21.5-3.2,43.4-5.8,59.8-22
		c10.8-10.7,22.5-19.7,36.8-24.7c10.1-3.5,19.7-7.8,28.7-13.2h-26.3h-5.1h-5h-5.6h-21h-5.5h-5.6h-7.1H92.2H78.6h-71H0v2.1v3.7v3.5
		v3.9v3.6v13.6v3.3V46v7v21.3c2.3,0.6,4.2,1.5,5.4,2.6c7.7,0.5,15.5,1.1,23.2,1.6c0,0,0,0,0,0c0,0,0,0,0,0c7.7,0,15.4,0,23,0
		c2.9,0,6-0.3,7.8,2.6c0.7,0,1.4,0.1,2.1,0.1c1.7-1.6,3.9-2.3,6-2.1c26.1,2.7,51.2-3.8,76.2-9.1c25.7-5.4,49.7-1.1,73.1,8.7
		c18.1,7.6,35.2,17.2,52.1,27V101C267.8,100.2,266.6,99.5,265.4,98.8z"/>
	<path class="st2" d="M214.5,165.9c-4.6-3.3-8.3-7.8-12.8-11.2c-12.3-9.3-23.9-19.3-38-26.2c-16.9-8.3-35-12.4-52.7-17.9
		c-16.1-5-32.4-10.8-49.8-10.5c0.1,0.1,0.2,0.2,0.2,0.2c-0.1-0.1-0.2-0.2-0.2-0.2c-2-0.3-4.1-0.2-6.1-0.8
		c-6.4-1.9-12.9-3.3-19.5-4.6c-4.2-0.7-8.4-1.3-12.6-2c-7.6-1-15.3-1.8-23-2.3v3.1v3.7v2.6v0.2v2.5v4v2.2v2.7v3v6.1v3.1V446h39.7
		h131.9h30.6h3.1h2.6h3.1h12.4h2.3h14.7h1.7h0.6h1.5h14.1h3.1h2.7h2.9h2.1V295.5v-9.9v-40.3v-6.9C255.3,211,240.2,184.4,214.5,165.9
		z"/>
</g>
</svg>
