<?xml version="1.0" encoding="UTF-8"?>
<svg width="50px" height="38px" viewBox="0 0 50 38" version="1.1" xmlns="http://www.w3.org/2000/svg" xmlns:xlink="http://www.w3.org/1999/xlink">
    <!-- Generator: Sketch 42 (36781) - http://www.bohemiancoding.com/sketch -->
    <defs></defs>
    <g id="quote" stroke="none" stroke-width="1" fill="none" fill-rule="evenodd">
        <path d="M49.588,27.104 C49.588,30.083 48.534,32.624 46.431,34.727 C44.326,36.833 41.785,37.884 38.808,37.884 C35.829,37.884 33.288,36.833 31.185,34.727 C29.08,32.624 28.028,30.083 28.028,27.104 L28.028,12.012 C28.028,8.523 29.13,5.647 31.339,3.388 C33.546,1.131 36.395,0 39.886,0 L47.74,0 L47.74,8.316 L40.502,8.316 C37.73,8.316 36.344,9.856 36.344,12.936 L36.344,16.786 C37.061,16.478 37.935,16.324 38.962,16.324 C41.835,16.324 44.326,17.378 46.431,19.481 C48.534,21.586 49.588,24.127 49.588,27.104 M21.56,27.104 C21.56,30.083 20.506,32.624 18.403,34.727 C16.297,36.833 13.756,37.884 10.78,37.884 C7.801,37.884 5.26,36.833 3.157,34.727 C1.051,32.624 0,30.083 0,27.104 L0,12.012 C0,8.523 1.102,5.647 3.311,3.388 C5.518,1.131 8.366,0 11.858,0 L19.712,0 L19.712,8.316 L12.474,8.316 C9.702,8.316 8.316,9.856 8.316,12.936 L8.316,16.786 C9.033,16.478 9.906,16.324 10.934,16.324 C13.807,16.324 16.297,17.378 18.403,19.481 C20.506,21.586 21.56,24.127 21.56,27.104" id="quote-path" fill="#000000"></path>
    </g>
</svg>